<?xml version="1.0" encoding="utf-8"?>
<!-- Generator: Adobe Illustrator 28.3.0, SVG Export Plug-In . SVG Version: 6.00 Build 0)  -->
<svg version="1.1" id="Capa_1" xmlns="http://www.w3.org/2000/svg" xmlns:xlink="http://www.w3.org/1999/xlink" x="0px" y="0px"
	 viewBox="0 0 885.23 619.66" style="enable-background:new 0 0 885.23 619.66;" xml:space="preserve">
<style type="text/css">

	.st0{fill: #f7f5ef;}
</style>
<path class="st0" d="M551.25,201.45c-17.87,0.04-50.43,5.07-67.27,14.16c-1.73,0.93-3.44,0.74-5.06,0.12
	c0.26-1.71,0.94-3.29,2.61-4.33c16.24-10.13,36.73-35.91,45.62-51.42c26.47-46.17,28.91-87.98,24.88-94.21
	c-7.42-0.33-42.27,22.89-68.74,69.06c-8.89,15.51-20.8,46.22-21.33,65.35c-0.05,1.95-1.06,3.33-2.4,4.42
	c-1.34-1.08-2.35-2.46-2.42-4.41c-0.62-19.13-12.66-49.79-21.62-65.25c-26.68-46.06-61.62-69.13-69.04-68.76
	c-4.01,6.25-1.39,48.05,25.29,94.1c8.96,15.47,29.56,41.17,45.84,51.22c1.67,1.03,2.36,2.61,2.63,4.33
	c-1.62,0.63-3.33,0.83-5.06-0.09c-16.88-9.01-49.46-13.88-67.33-13.84c-53.22,0.13-90.66,18.9-94.04,25.51
	c3.42,6.59,40.94,25.18,94.16,25.06c17.87-0.04,50.42-5.07,67.27-14.16c1.73-0.93,3.44-0.74,5.06-0.12
	c-0.26,1.71-0.94,3.29-2.61,4.33c-16.24,10.13-36.73,35.91-45.62,51.42c-26.48,46.17-28.91,87.97-24.88,94.21
	c7.42,0.33,42.27-22.89,68.74-69.06c8.89-15.51,20.8-46.22,21.33-65.35c0.05-1.95,1.06-3.33,2.4-4.42c1.34,1.08,2.35,2.46,2.42,4.41
	c0.62,19.13,12.66,49.79,21.62,65.25c26.68,46.06,61.62,69.13,69.04,68.76c4.01-6.25,1.39-48.05-25.29-94.1
	c-8.96-15.47-29.56-41.16-45.84-51.22c-1.67-1.03-2.36-2.61-2.63-4.33c1.62-0.63,3.33-0.83,5.06,0.09
	c16.88,9.01,49.46,13.88,67.33,13.84c53.22-0.13,90.66-18.9,94.04-25.51C641.99,219.91,604.47,201.32,551.25,201.45z"/>
<g>
	<g>
		<path class="st0" d="M106.5,504.65c-2.22,0-4.35-0.23-6.34-0.68c-1.97-0.45-4.44-1.3-7.36-2.52c-1.76-0.73-2.81-0.89-3.39-0.89
			c-0.56,0-1.22,0.25-1.93,0.74c-0.74,0.51-1.36,1.33-1.85,2.44l-0.37,0.85h-4.19v-28.34h4.43l0.23,1.14
			c1.39,6.83,4.08,12.1,8,15.64c3.88,3.51,8.09,5.29,12.52,5.29c3.38,0,5.97-0.87,7.93-2.66c1.92-1.76,2.85-3.73,2.85-6.02
			c0-1.36-0.35-2.64-1.09-3.93c-0.75-1.32-1.93-2.61-3.5-3.84c-1.64-1.28-4.64-2.99-8.92-5.1c-6.2-3.05-10.74-5.7-13.5-7.88
			c-2.83-2.23-5.04-4.77-6.56-7.55c-1.55-2.82-2.34-5.97-2.34-9.35c0-5.76,2.14-10.73,6.36-14.77c4.21-4.03,9.56-6.07,15.92-6.07
			c2.3,0,4.56,0.28,6.73,0.84c1.64,0.42,3.65,1.2,5.96,2.31c2.77,1.33,3.78,1.48,4.09,1.48c0.61,0,0.86-0.2,1-0.35
			c0.05-0.05,0.49-0.58,1.04-3.16l0.24-1.12h4.03l0.62,25.35h-4.7l-0.2-1.18c-0.9-5.3-3.14-9.61-6.65-12.81
			c-3.53-3.22-7.22-4.78-11.27-4.78c-3.05,0-5.36,0.77-7.08,2.34c-1.68,1.54-2.5,3.24-2.5,5.2c0,1.24,0.27,2.3,0.84,3.25
			c0.86,1.39,2.29,2.81,4.24,4.21c1.49,1.05,5.07,2.97,10.61,5.71c8.16,4.01,13.55,7.74,16.47,11.39c2.92,3.7,4.39,7.99,4.39,12.74
			c0,6.03-2.37,11.28-7.05,15.61C119.57,502.47,113.61,504.65,106.5,504.65z"/>
		<path class="st0" d="M170.18,503.06v-4.69h2.77c2.86,0,4.14-0.45,4.71-0.83c0.25-0.18,0.5-0.47,0.5-1.13
			c0-0.45-0.08-0.92-0.23-1.42l-0.02-0.06l-0.01-0.05c-0.04-0.12-0.24-0.72-1.42-3.5l-3.22-7.55h-21.98l-2.47,5.72
			c-0.85,2-1.28,3.64-1.28,4.86c0,1.38,0.5,2.32,1.59,2.96c0.32,0.19,1.55,0.67,6.01,1l1.31,0.1v4.58h-25.3v-4.49l1.21-0.18
			c2.12-0.32,3.81-1.17,5.16-2.59c1.44-1.52,3.3-4.81,5.51-9.78l24.53-54.73h2.79l24.73,56.23c2.78,6.27,4.46,8.59,5.38,9.43
			c0.88,0.81,2.21,1.29,3.94,1.43l1.31,0.11v4.58H170.18z M170.34,477.31l-7.92-18.3l-8.15,18.3H170.34z"/>
		<path class="st0" d="M270.2,504.6l-43.57-53.64v38.92c0,3.4,0.71,5.67,2.11,6.74c1.53,1.18,3.25,1.75,5.24,1.75h3.01v4.69h-26.8
			v-4.67l1.41-0.01c3.31-0.03,5.58-0.66,6.76-1.86c1.18-1.21,1.79-3.44,1.79-6.63v-47.16l-1.13-1.4c-1.62-2.03-2.7-2.84-3.33-3.16
			c-0.9-0.46-2.29-0.73-4.13-0.79l-1.37-0.05v-4.64h26.06l31.21,39.23v-24.96c0-4.6-0.77-6.52-1.42-7.32
			c-1.25-1.51-3.45-2.27-6.55-2.27c-0.11,0-0.23,0-0.34,0l-1.45,0.03v-4.71h25.15v4.51l-1.24,0.16c-3.48,0.45-4.76,0.96-5.21,1.23
			c-0.71,0.42-1.27,1.13-1.7,2.16c-0.32,0.78-0.71,2.48-0.71,6.2v57.65H270.2z"/>
		<path class="st0" d="M309.8,503.06v-4.69h3.66c1.7,0,3.05-0.29,4.02-0.85l0.02-0.01l0.02-0.01c0.57-0.31,1.01-0.86,1.35-1.68
			l0.01-0.03l0.01-0.03c0.1-0.21,0.42-1.26,0.42-5.68v-44.42c0-4.41-0.3-5.61-0.44-5.92c-0.24-0.57-0.79-1.1-1.62-1.59
			c-0.89-0.52-2.16-0.78-3.79-0.78h-3.66v-4.68h38.85v4.68h-4.36c-1.69,0-3.04,0.29-4.01,0.85l-0.02,0.01l-0.02,0.01
			c-0.58,0.31-1.04,0.87-1.42,1.71l-0.01,0.02c-0.1,0.21-0.42,1.26-0.42,5.68v43.03c0,4.41,0.34,5.7,0.49,6.05
			c0.24,0.58,0.75,1.02,1.53,1.34c0.33,0.11,1.52,0.36,5.52,0.36h5.63c3.34,0,6.13-0.58,8.3-1.73c2.16-1.14,4.07-2.98,5.67-5.49
			c1.66-2.6,3.27-6.53,4.79-11.69l0.3-1.02h4.69l-2.84,26.55H309.8z"/>
		<path class="st0" d="M417.39,504.6c-6.25,0-11.87-1.08-16.73-3.21c-4.89-2.14-9.11-5.4-12.56-9.67
			c-5.43-6.73-8.18-14.83-8.18-24.05c0-10.38,3.59-19.15,10.66-26.09c6.68-6.55,14.93-9.88,24.51-9.88c0.55,0,1.11,0.01,1.67,0.03
			c0.6-0.02,1.21-0.03,1.8-0.03c10.28,0,18.83,3.32,25.42,9.86c6.97,6.92,10.51,15.68,10.51,26.06c0,8.85-2.63,16.75-7.82,23.48
			c-3.45,4.48-7.67,7.89-12.55,10.13C429.25,503.47,423.63,504.6,417.39,504.6z M417.34,437.77c-5.65,0-9.84,2.84-12.83,8.69
			c-2.51,4.95-3.78,12.24-3.78,21.66c0,11.16,1.95,19.47,5.8,24.71c2.56,3.5,6.06,5.2,10.71,5.2c3.1,0,5.7-0.75,7.73-2.22
			c2.67-1.94,4.79-5.14,6.31-9.5c1.57-4.49,2.36-10.48,2.36-17.78c0-8.72-0.81-15.3-2.4-19.55c-1.55-4.14-3.52-7.08-5.84-8.73
			C423.06,438.58,420.42,437.77,417.34,437.77z"/>
		<path class="st0" d="M508.51,503.06l-21.76-30.78h-2.28v17.5c0,4.65,0.37,5.95,0.54,6.29c0.31,0.66,0.87,1.18,1.72,1.6
			c0.52,0.26,1.95,0.7,5.69,0.7h1.42v4.69h-37.4v-4.69h1.42c3.77,0,5.18-0.44,5.69-0.71c0.84-0.44,1.4-0.97,1.72-1.62
			c0.16-0.33,0.53-1.6,0.53-6.25v-43.82c0-4.66-0.37-5.95-0.53-6.29c-0.31-0.66-0.87-1.18-1.72-1.6c-0.52-0.26-1.95-0.7-5.69-0.7
			h-1.42v-4.68h32.79c8.38,0,14.38,0.57,18.33,1.75c4.05,1.21,7.41,3.47,9.98,6.73c2.58,3.28,3.89,7.17,3.89,11.56
			c0,5.37-1.97,9.88-5.84,13.4c-2.07,1.86-4.84,3.34-8.24,4.4l15.07,21.21c2.51,3.49,3.7,4.77,4.25,5.23
			c1.14,0.85,2.42,1.31,3.93,1.39l1.34,0.07v4.61H508.51z M485.89,465.9c4.42,0,7.74-0.4,9.87-1.18c1.99-0.74,3.52-2.04,4.67-3.97
			c1.17-1.97,1.77-4.64,1.77-7.92c0-4.74-1.08-8.24-3.2-10.41c-2.12-2.16-5.69-3.26-10.61-3.26h-3.91v26.74H485.89z"/>
		<path class="st0" d="M534.99,503.06v-4.69h3.66c1.7,0,3.05-0.29,4.01-0.85l0.02-0.01l0.02-0.01c0.57-0.31,1.01-0.86,1.35-1.68
			l0.01-0.03l0.01-0.03c0.1-0.21,0.42-1.26,0.42-5.68v-44.42c0-3.86-0.14-4.96-0.2-5.27c-0.25-0.83-0.67-1.45-1.28-1.88l-0.03-0.02
			c-1.01-0.74-2.47-1.12-4.34-1.12h-3.66v-4.68h59.37v22.81h-4.48l-0.23-1.15c-0.91-4.63-2.18-7.95-3.76-9.88
			c-1.56-1.9-3.82-3.32-6.72-4.23l-0.01,0c-1.71-0.55-5.08-0.83-10.02-0.83h-5.55v24.65c3.79-0.01,6.43-1.14,8.08-3.44
			c1.77-2.47,2.92-6.25,3.43-11.22l0.13-1.28h4.6v38.2h-4.59l-0.13-1.27c-0.38-3.66-1.17-6.67-2.36-8.95
			c-1.13-2.17-2.42-3.63-3.83-4.34c-1.24-0.62-3.02-0.98-5.31-1.09v17.57c0,4.94,0.29,6.08,0.38,6.31c0.2,0.54,0.59,0.97,1.18,1.34
			c0.36,0.22,1.28,0.59,3.44,0.59h4.03c5.96,0,10.77-1.38,14.3-4.09c3.53-2.71,6.12-6.95,7.69-12.6l0.29-1.04h4.56l-3.44,24.31
			H534.99z"/>
		<path class="st0" d="M662.43,504.6l-43.57-53.64v38.92c0,3.4,0.71,5.67,2.11,6.74c1.53,1.18,3.25,1.75,5.24,1.75h3.02v4.69h-26.8
			v-4.67l1.41-0.01c3.31-0.03,5.58-0.66,6.77-1.86c1.18-1.21,1.78-3.44,1.78-6.63v-47.16l-1.13-1.4c-1.62-2.03-2.7-2.84-3.33-3.16
			c-0.9-0.46-2.29-0.73-4.13-0.79l-1.37-0.05v-4.64h26.06l31.21,39.23v-24.96c0-4.6-0.77-6.52-1.42-7.32
			c-1.25-1.51-3.45-2.27-6.55-2.27c-0.11,0-0.23,0-0.34,0l-1.45,0.03v-4.71h25.15v4.51l-1.24,0.16c-3.48,0.45-4.75,0.96-5.21,1.23
			c-0.72,0.43-1.27,1.13-1.7,2.16c-0.32,0.78-0.71,2.49-0.71,6.2v57.65H662.43z"/>
		<path class="st0" d="M675.14,503.06l39.74-63.85h-7.45c-4.7,0-6.62,0.18-7.41,0.32c-2.14,0.4-4.18,1.2-6.06,2.37
			c-1.85,1.16-3.41,2.73-4.63,4.66c-1.25,1.98-2.25,4.55-2.98,7.63l-0.26,1.1h-4.53l2.11-22.61h57.19l-39.69,63.75h10.29
			c5.9,0,10.05-0.36,12.32-1.08l0.02,0c3.68-1.11,6.89-3.19,9.56-6.18c2.67-3,4.55-7.11,5.59-12.21l0.23-1.14h4.69l-3.06,27.25
			H675.14z"/>
		<path class="st0" d="M784.12,504.6c-6.25,0-11.87-1.08-16.73-3.21c-4.89-2.14-9.11-5.4-12.56-9.67
			c-5.43-6.74-8.18-14.83-8.18-24.05c0-10.37,3.59-19.15,10.66-26.09c6.69-6.55,14.93-9.88,24.51-9.88c0.55,0,1.11,0.01,1.67,0.03
			c0.6-0.02,1.21-0.03,1.8-0.03c10.28,0,18.83,3.32,25.42,9.86c6.97,6.92,10.51,15.68,10.51,26.06c0,8.85-2.63,16.75-7.82,23.48
			c-3.45,4.48-7.67,7.89-12.55,10.13C795.99,503.47,790.36,504.6,784.12,504.6z M784.07,437.77c-5.65,0-9.84,2.84-12.83,8.69
			c-2.51,4.95-3.78,12.24-3.78,21.66c0,11.16,1.95,19.47,5.8,24.71c2.56,3.5,6.06,5.2,10.71,5.2c3.1,0,5.7-0.75,7.73-2.22
			c2.67-1.94,4.79-5.14,6.31-9.5c1.57-4.49,2.36-10.48,2.36-17.78c0-8.72-0.81-15.29-2.4-19.55c-1.55-4.14-3.52-7.08-5.84-8.73
			C789.79,438.58,787.15,437.77,784.07,437.77z"/>
	</g>
	<g>
		<path class="st0" d="M189.01,557.1v-1.33h3.93v-26.81h-3.93v-1.33h16.4c2.16,0,4.03,0.37,5.6,1.13c2.75,1.34,4.13,3.55,4.13,6.63
			c0,1.24-0.21,2.37-0.64,3.39c-1.44,3.57-4.99,5.35-10.66,5.35h-4.03v11.64h3.58c0.69,0.07,1.13,0.51,1.33,1.33H189.01z
			 M199.81,528.97v13.7h2.6c3.5-0.03,5.29-2.31,5.35-6.83c-0.03-4.52-1.75-6.81-5.16-6.87H199.81z"/>
		<path class="st0" d="M229.71,553.12c-0.16,0.46-0.38,0.9-0.64,1.33c-1.31,2.1-3.36,3.14-6.14,3.14c-0.92,0-1.75-0.12-2.5-0.34
			c-2.55-0.82-3.83-2.68-3.83-5.6c0.03-4.29,4.26-6.51,12.67-6.68v-3.19c0-0.95-0.07-1.77-0.2-2.45c-0.33-1.87-1.26-2.8-2.8-2.8
			c-0.46,0-0.87,0.08-1.23,0.25c-0.56,0.32-1.01,1.14-1.37,2.45c-0.13,0.46-0.23,0.79-0.3,0.98c-0.49,1.38-1.44,2.06-2.85,2.06
			c-0.33,0-0.64-0.05-0.93-0.15c-1.21-0.33-1.82-1.13-1.82-2.41c0-0.56,0.15-1.08,0.44-1.57c1.15-1.93,3.94-2.9,8.4-2.9
			c1.15,0,2.21,0.12,3.19,0.34c3.8,0.95,5.7,3.47,5.7,7.56v10.26c0,1.57,0.36,2.39,1.08,2.46c0.95-0.03,1.52-1.18,1.72-3.44
			l1.28,0.05c-0.1,1.01-0.25,1.85-0.44,2.5c-0.59,1.74-2.08,2.6-4.47,2.6C232.05,557.43,230.4,555.94,229.71,553.12z M226.28,555.34
			c1.37-0.52,2.37-1.93,3-4.22v-4.76c-1.47,0.06-2.69,0.25-3.63,0.54c-1.77,0.66-2.65,2.06-2.65,4.22c0.03,2.85,0.87,4.31,2.5,4.37
			C225.72,555.48,225.98,555.43,226.28,555.34z"/>
		<path class="st0" d="M251.66,555.88c0.42,0.07,0.64,0.47,0.64,1.23h-11.49v-1.28c0.26,0,0.51-0.02,0.74-0.05
			c1.41-0.16,2.11-1,2.11-2.5v-16.01h-2.85v-1.28h8.74l0.25,3.83c0.3-0.59,0.69-1.16,1.18-1.72c1.67-1.9,3.7-2.85,6.09-2.85
			c0.85,0,1.67,0.13,2.46,0.39c2.88,1.01,4.32,3.55,4.32,7.61v12.57h1.62c0.2,0,0.39,0.02,0.59,0.05c0.43,0.07,0.64,0.47,0.64,1.23
			h-11.34v-1.28c0.46,0,0.85-0.05,1.18-0.15c0.72-0.23,1.08-1.03,1.08-2.41v-10.85c0-0.46-0.03-0.9-0.1-1.33
			c-0.33-2.19-1.42-3.29-3.29-3.29c-0.49,0-0.97,0.11-1.42,0.34c-1.67,0.82-2.62,2.52-2.85,5.11l-0.05,12.57h1.23
			C251.32,555.83,251.5,555.84,251.66,555.88z"/>
		<path class="st0" d="M281.52,553.12c-0.16,0.46-0.38,0.9-0.64,1.33c-1.31,2.1-3.36,3.14-6.14,3.14c-0.92,0-1.75-0.12-2.5-0.34
			c-2.55-0.82-3.83-2.68-3.83-5.6c0.03-4.29,4.26-6.51,12.67-6.68v-3.19c0-0.95-0.07-1.77-0.2-2.45c-0.33-1.87-1.26-2.8-2.8-2.8
			c-0.46,0-0.87,0.08-1.23,0.25c-0.56,0.32-1.01,1.14-1.37,2.45c-0.13,0.46-0.23,0.79-0.3,0.98c-0.49,1.38-1.44,2.06-2.85,2.06
			c-0.33,0-0.64-0.05-0.93-0.15c-1.21-0.33-1.82-1.13-1.82-2.41c0-0.56,0.15-1.08,0.44-1.57c1.15-1.93,3.94-2.9,8.4-2.9
			c1.15,0,2.21,0.12,3.19,0.34c3.8,0.95,5.7,3.47,5.7,7.56v10.26c0,1.57,0.36,2.39,1.08,2.46c0.95-0.03,1.52-1.18,1.72-3.44
			l1.28,0.05c-0.1,1.01-0.25,1.85-0.44,2.5c-0.59,1.74-2.08,2.6-4.47,2.6C283.86,557.43,282.2,555.94,281.52,553.12z M278.08,555.34
			c1.37-0.52,2.37-1.93,3-4.22v-4.76c-1.47,0.06-2.69,0.25-3.63,0.54c-1.77,0.66-2.65,2.06-2.65,4.22c0.03,2.85,0.87,4.31,2.5,4.37
			C277.52,555.48,277.78,555.43,278.08,555.34z"/>
		<path class="st0" d="M309.45,552.49c-0.16,0.42-0.36,0.84-0.59,1.23c-1.47,2.59-3.73,3.88-6.78,3.88c-1.83,0-3.5-0.56-5.01-1.67
			c-2.65-1.93-3.98-4.93-3.98-8.99c0-3.27,0.85-5.99,2.55-8.15c1.96-2.39,4.5-3.58,7.61-3.58c2.32,0,4.32,0.72,5.99,2.16v-10.9
			h-4.47v-1.28h10.71v30.59h2.26c0.23,0,0.43,0.02,0.59,0.05c0.39,0.1,0.59,0.52,0.59,1.28h-8.79L309.45,552.49z M300.08,549.74
			c0.56,3.73,1.98,5.6,4.27,5.6c0.69,0,1.33-0.18,1.91-0.54c2.06-1.34,3.09-4.47,3.09-9.38c0-1.11-0.07-2.16-0.2-3.14
			c-0.56-3.63-2.01-5.45-4.37-5.45c-0.65,0-1.28,0.17-1.86,0.49c-2.06,1.25-3.09,4.26-3.09,9.04
			C299.83,547.59,299.91,548.72,300.08,549.74z"/>
		<path class="st0" d="M340.54,553.57c-1.67,2.68-4.42,4.02-8.25,4.02c-2.16,0-4.09-0.44-5.8-1.33c-3.57-1.87-5.35-5.17-5.35-9.92
			c0-2.91,0.79-5.35,2.36-7.32c2.06-2.52,4.94-3.78,8.64-3.78c2.03,0,3.85,0.34,5.45,1.03c2.85,1.28,4.27,3.31,4.27,6.09
			c0,0.56-0.1,1.06-0.3,1.52c-0.85,1.83-3.91,2.67-9.18,2.5l-4.52-0.15c0.03,1.9,0.2,3.53,0.49,4.91c0.75,3.34,2.44,5.01,5.06,5.01
			c0.82,0,1.62-0.15,2.41-0.44c1.96-0.72,3.4-2.08,4.32-4.07l1.18,0.39C341.12,552.57,340.86,553.08,340.54,553.57z M327.87,544.83
			l3.14,0.15c1.31,0.07,2.29-0.02,2.95-0.25c0.92-0.36,1.37-1.31,1.37-2.85c-0.03-3.5-1.1-5.29-3.19-5.35
			C329.52,536.63,328.1,539.4,327.87,544.83z"/>
		<path class="st0" d="M357.28,555.88c0.42,0.07,0.64,0.47,0.64,1.23h-13.9v-1.28c0.43,0,0.8-0.03,1.13-0.1
			c1.15-0.2,1.72-1.01,1.72-2.45v-16.01h-2.85v-1.28h8.59l0.34,4.57c0.36-0.92,0.89-1.77,1.57-2.55c1.54-1.6,3.32-2.41,5.35-2.41
			c0.42,0,0.83,0.05,1.23,0.15c1.6,0.42,2.41,1.46,2.41,3.09c0,0.46-0.1,0.9-0.3,1.32c-0.56,1.25-1.49,1.87-2.8,1.87
			c-0.39,0-0.75-0.05-1.08-0.15c-0.69-0.26-1.33-0.92-1.91-1.97c-0.43-0.75-0.82-1.13-1.18-1.13c-0.2,0-0.41,0.05-0.64,0.15
			c-1.44,0.75-2.28,2.85-2.5,6.29v10.61h3.63C356.94,555.83,357.11,555.84,357.28,555.88z"/>
		<path class="st0" d="M376.43,555.88c0.43,0.07,0.64,0.47,0.64,1.23h-12.08v-1.28c0.42,0,0.8-0.03,1.13-0.1
			c1.15-0.2,1.72-1.01,1.72-2.45v-16.01h-2.85v-1.28h9.08v19.84h1.82C376.09,555.83,376.26,555.84,376.43,555.88z M376.23,531.18
			c-3.34,1.08-5.48,1.85-6.43,2.31l-0.74-1.08c1.37-1.21,2.7-2.55,3.98-4.02c1.34-1.57,2.22-2.52,2.65-2.85
			c0.49-0.33,1-0.51,1.52-0.54c0.46,0,0.9,0.13,1.32,0.39c0.95,0.59,1.42,1.44,1.42,2.55c-0.03,0.85-0.39,1.54-1.08,2.06
			C378.39,530.33,377.51,530.72,376.23,531.18z"/>
		<path class="st0" d="M392.14,553.12c-0.16,0.46-0.38,0.9-0.64,1.33c-1.31,2.1-3.36,3.14-6.14,3.14c-0.92,0-1.75-0.12-2.5-0.34
			c-2.55-0.82-3.83-2.68-3.83-5.6c0.03-4.29,4.26-6.51,12.67-6.68v-3.19c0-0.95-0.07-1.77-0.2-2.45c-0.33-1.87-1.26-2.8-2.8-2.8
			c-0.46,0-0.87,0.08-1.23,0.25c-0.56,0.32-1.01,1.14-1.37,2.45c-0.13,0.46-0.23,0.79-0.3,0.98c-0.49,1.38-1.44,2.06-2.85,2.06
			c-0.33,0-0.64-0.05-0.93-0.15c-1.21-0.33-1.82-1.13-1.82-2.41c0-0.56,0.15-1.08,0.44-1.57c1.15-1.93,3.94-2.9,8.4-2.9
			c1.15,0,2.21,0.12,3.19,0.34c3.8,0.95,5.7,3.47,5.7,7.56v10.26c0,1.57,0.36,2.39,1.08,2.46c0.95-0.03,1.52-1.18,1.72-3.44
			l1.28,0.05c-0.1,1.01-0.25,1.85-0.44,2.5c-0.59,1.74-2.08,2.6-4.47,2.6C394.48,557.43,392.83,555.94,392.14,553.12z
			 M388.71,555.34c1.37-0.52,2.37-1.93,3-4.22v-4.76c-1.47,0.06-2.69,0.25-3.63,0.54c-1.77,0.66-2.65,2.06-2.65,4.22
			c0.03,2.85,0.87,4.31,2.5,4.37C388.15,555.48,388.41,555.43,388.71,555.34z"/>
		<path class="st0" d="M410.36,555.68c-0.39,2.55-1.62,4.94-3.68,7.17l-1.03-0.79c0.03-0.03,0.06-0.07,0.1-0.1
			c1.21-1.31,1.82-2.45,1.82-3.44c-0.03-0.59-0.46-1-1.28-1.23c-0.26-0.07-0.52-0.15-0.79-0.25c-1.34-0.65-2.01-1.7-2.01-3.14
			c0-0.55,0.13-1.09,0.39-1.62c0.62-1.25,1.6-1.87,2.95-1.87c0.46,0,0.9,0.07,1.32,0.2c1.54,0.56,2.31,1.85,2.31,3.88
			C410.46,554.86,410.42,555.25,410.36,555.68z"/>
		<path class="st0" d="M438.05,557.59c-4.75,0-8.58-1.52-11.49-4.57c-2.72-2.88-4.07-6.43-4.07-10.66c0-3.57,1.03-6.73,3.09-9.48
			c2.91-3.83,7.12-5.75,12.62-5.75c3.44,0,6.58,0.77,9.43,2.31c-0.03-0.52-0.02-0.95,0.05-1.28c0.16-0.52,0.67-0.79,1.52-0.79
			l0.15,9.67h-1.72c-0.52-1.9-1.13-3.45-1.82-4.66c-1.47-2.52-3.75-3.78-6.82-3.78c-5.83,0.03-8.76,4.54-8.79,13.5
			c0,2.75,0.2,5.06,0.59,6.92c1.05,4.71,3.65,7.07,7.81,7.07c1.05,0,2-0.12,2.85-0.34c3.08-0.85,5.22-3.55,6.43-8.1h1.62v9.67
			c-0.36,0-0.65-0.03-0.88-0.1c-0.59-0.13-0.87-0.82-0.84-2.06C444.66,556.79,441.42,557.59,438.05,557.59z"/>
		<path class="st0" d="M464.57,553.12c-0.16,0.46-0.38,0.9-0.64,1.33c-1.31,2.1-3.36,3.14-6.14,3.14c-0.92,0-1.75-0.12-2.5-0.34
			c-2.55-0.82-3.83-2.68-3.83-5.6c0.03-4.29,4.26-6.51,12.67-6.68v-3.19c0-0.95-0.07-1.77-0.2-2.45c-0.33-1.87-1.26-2.8-2.8-2.8
			c-0.46,0-0.87,0.08-1.23,0.25c-0.56,0.32-1.01,1.14-1.37,2.45c-0.13,0.46-0.23,0.79-0.3,0.98c-0.49,1.38-1.44,2.06-2.85,2.06
			c-0.33,0-0.64-0.05-0.93-0.15c-1.21-0.33-1.82-1.13-1.82-2.41c0-0.56,0.15-1.08,0.44-1.57c1.15-1.93,3.94-2.9,8.4-2.9
			c1.15,0,2.21,0.12,3.19,0.34c3.8,0.95,5.7,3.47,5.7,7.56v10.26c0,1.57,0.36,2.39,1.08,2.46c0.95-0.03,1.52-1.18,1.72-3.44
			l1.28,0.05c-0.1,1.01-0.25,1.85-0.44,2.5c-0.59,1.74-2.08,2.6-4.47,2.6C466.91,557.43,465.25,555.94,464.57,553.12z
			 M461.13,555.34c1.37-0.52,2.37-1.93,3-4.22v-4.76c-1.47,0.06-2.69,0.25-3.63,0.54c-1.77,0.66-2.65,2.06-2.65,4.22
			c0.03,2.85,0.87,4.31,2.5,4.37C460.57,555.48,460.83,555.43,461.13,555.34z"/>
		<path class="st0" d="M489.9,555.88c0.43,0.07,0.64,0.47,0.64,1.23h-14.63v-1.28c2.42,0,3.67-0.85,3.73-2.55v-15.96h-3.98v-1.32
			h3.98v-0.64c0-2.49,0.52-4.58,1.57-6.29c1.7-2.75,4.47-4.12,8.3-4.12c1.77,0,3.27,0.31,4.52,0.93c1.7,0.85,2.55,2,2.55,3.43
			c0,0.3-0.05,0.57-0.15,0.84c-0.43,1.05-1.31,1.57-2.65,1.57c-0.75-0.03-1.41-0.36-1.96-0.98c-0.2-0.26-0.62-1.15-1.28-2.65
			c-0.52-1.24-1.2-1.87-2.01-1.87c-0.62,0-1.13,0.23-1.52,0.69c-0.75,0.95-1.13,3.9-1.13,8.84v0.25h5.55v1.32h-5.55v18.51h3.49
			C489.56,555.83,489.74,555.84,489.9,555.88z"/>
		<path class="st0" d="M512.54,553.57c-1.67,2.68-4.42,4.02-8.25,4.02c-2.16,0-4.09-0.44-5.8-1.33c-3.57-1.87-5.35-5.17-5.35-9.92
			c0-2.91,0.79-5.35,2.36-7.32c2.06-2.52,4.94-3.78,8.64-3.78c2.03,0,3.85,0.34,5.45,1.03c2.85,1.28,4.27,3.31,4.27,6.09
			c0,0.56-0.1,1.06-0.3,1.52c-0.85,1.83-3.91,2.67-9.18,2.5l-4.52-0.15c0.03,1.9,0.2,3.53,0.49,4.91c0.75,3.34,2.44,5.01,5.06,5.01
			c0.82,0,1.62-0.15,2.41-0.44c1.96-0.72,3.4-2.08,4.32-4.07l1.18,0.39C513.13,552.57,512.87,553.08,512.54,553.57z M505.76,531.18
			c-3.34,1.08-5.48,1.85-6.43,2.31l-0.74-1.08c1.37-1.21,2.7-2.55,3.98-4.02c1.34-1.57,2.22-2.52,2.65-2.85
			c0.49-0.33,1-0.51,1.52-0.54c0.46,0,0.9,0.13,1.32,0.39c0.95,0.59,1.42,1.44,1.42,2.55c-0.03,0.85-0.39,1.54-1.08,2.06
			C507.92,530.33,507.04,530.72,505.76,531.18z M499.87,544.83l3.14,0.15c1.31,0.07,2.29-0.02,2.95-0.25
			c0.92-0.36,1.37-1.31,1.37-2.85c-0.03-3.5-1.1-5.29-3.19-5.35C501.52,536.63,500.1,539.4,499.87,544.83z"/>
		<path class="st0" d="M532.03,564.76c1.44-0.52,2.95-2.73,4.52-6.63l-9.57-20.92h-2.06v-1.23h11.54v1.23h-3l5.94,13.7l5.35-13.7
			h-3.68v-1.23h7.61c0,0.16-0.02,0.32-0.05,0.49c-0.07,0.49-0.46,0.74-1.18,0.74c-0.52,0.07-1.06,0.54-1.62,1.42l-7.37,19.1
			c-0.62,1.63-1.28,3.03-1.96,4.17c-1.8,3.18-4.07,4.76-6.82,4.76c-1.21,0-2.28-0.25-3.19-0.74c-1.31-0.69-1.96-1.57-1.96-2.65
			c0-0.23,0.03-0.47,0.1-0.74c0.33-1.01,1.08-1.52,2.26-1.52c0.56,0,1.05,0.15,1.47,0.44c0.36,0.3,0.77,1.01,1.23,2.16
			c0.36,0.88,0.83,1.33,1.42,1.33C531.33,564.96,531.67,564.89,532.03,564.76z"/>
		<path class="st0" d="M584.67,536.28c-0.82,2.29-2.7,3.91-5.65,4.86c0.78,0.1,1.54,0.25,2.26,0.44c3.96,1.05,5.94,3.39,5.94,7.02
			c0,1.64-0.49,3.14-1.47,4.52c-2,2.65-5.24,3.98-9.72,3.98h-16.79v-1.33h3.93v-26.81h-3.93v-1.33h15.91c1.8,0,3.4,0.2,4.81,0.59
			c3.37,0.98,5.06,2.99,5.06,6.04C585.01,534.93,584.9,535.6,584.67,536.28z M570.04,528.97v11.49h2.75c0.59,0,1.15-0.06,1.67-0.2
			c2.29-0.65,3.44-2.52,3.44-5.6c-0.03-3.73-1.86-5.63-5.5-5.7H570.04z M570.04,541.83v13.94h3.29c0.42,0,0.85-0.03,1.28-0.1
			c3.4-0.49,5.11-2.96,5.11-7.42c0-0.98-0.15-1.9-0.44-2.75c-0.85-2.46-2.59-3.68-5.21-3.68H570.04z"/>
		<path class="st0" d="M602.69,555.88c0.42,0.07,0.64,0.47,0.64,1.23h-13.9v-1.28c0.43,0,0.8-0.03,1.13-0.1
			c1.15-0.2,1.72-1.01,1.72-2.45v-16.01h-2.85v-1.28h8.59l0.34,4.57c0.36-0.92,0.89-1.77,1.57-2.55c1.54-1.6,3.32-2.41,5.35-2.41
			c0.42,0,0.83,0.05,1.23,0.15c1.6,0.42,2.41,1.46,2.41,3.09c0,0.46-0.1,0.9-0.3,1.32c-0.56,1.25-1.49,1.87-2.8,1.87
			c-0.39,0-0.75-0.05-1.08-0.15c-0.69-0.26-1.33-0.92-1.91-1.97c-0.43-0.75-0.82-1.13-1.18-1.13c-0.2,0-0.41,0.05-0.64,0.15
			c-1.44,0.75-2.28,2.85-2.5,6.29v10.61h3.63C602.35,555.83,602.52,555.84,602.69,555.88z"/>
		<path class="st0" d="M635.19,555.88c0.39,0.1,0.59,0.51,0.59,1.23h-8.74l-0.25-4.02c-0.1,0.2-0.2,0.39-0.3,0.59
			c-1.54,2.62-3.78,3.93-6.73,3.93c-4.62-0.03-6.96-2.7-7.02-8v-12.32h-2.85v-1.28h9.08v14.44c0,0.46,0.03,0.9,0.1,1.33
			c0.33,2.19,1.42,3.29,3.29,3.29c0.49,0,0.98-0.12,1.47-0.34c1.64-0.82,2.57-2.5,2.8-5.06l0.05-12.37h-2.41v-1.28h8.64v19.84h1.67
			C634.83,555.83,635.03,555.84,635.19,555.88z"/>
		<path class="st0" d="M648.6,555.88c0.42,0.07,0.64,0.47,0.64,1.23h-11.49v-1.28c0.26,0,0.51-0.02,0.74-0.05
			c1.41-0.16,2.11-1,2.11-2.5v-16.01h-2.85v-1.28h8.74l0.25,3.83c0.3-0.59,0.69-1.16,1.18-1.72c1.67-1.9,3.7-2.85,6.09-2.85
			c0.85,0,1.67,0.13,2.46,0.39c2.88,1.01,4.32,3.55,4.32,7.61v12.57h1.62c0.2,0,0.39,0.02,0.59,0.05c0.43,0.07,0.64,0.47,0.64,1.23
			h-11.34v-1.28c0.46,0,0.85-0.05,1.18-0.15c0.72-0.23,1.08-1.03,1.08-2.41v-10.85c0-0.46-0.03-0.9-0.1-1.33
			c-0.33-2.19-1.42-3.29-3.29-3.29c-0.49,0-0.97,0.11-1.42,0.34c-1.67,0.82-2.62,2.52-2.85,5.11l-0.05,12.57h1.23
			C648.26,555.83,648.44,555.84,648.6,555.88z"/>
		<path class="st0" d="M668.73,538.64c2.16-2.26,4.98-3.39,8.45-3.39c2.55,0,4.68,0.51,6.38,1.53c1.73,1.08,2.6,2.34,2.6,3.78
			c0,0.26-0.03,0.52-0.1,0.79c-0.39,1.24-1.42,1.87-3.09,1.87c-0.79,0-1.41-0.17-1.86-0.49c-0.59-0.43-0.98-1.39-1.18-2.9
			c-0.1-0.62-0.18-1.06-0.25-1.33c-0.33-1.34-1.21-2.01-2.65-2.01c-0.72,0-1.34,0.15-1.86,0.44c-1.74,1.05-2.6,4.32-2.6,9.82
			c0,2.75,0.28,4.88,0.83,6.38c0.75,2.03,2.26,3.05,4.52,3.05c0.85,0,1.7-0.13,2.55-0.39c2.19-0.69,3.75-2.01,4.66-3.98l1.28,0.34
			c-0.33,0.85-0.8,1.64-1.42,2.36c-1.83,2.06-4.45,3.09-7.86,3.09c-2.19,0-4.14-0.41-5.84-1.23c-3.63-1.8-5.45-5.09-5.45-9.87
			C665.84,543.29,666.8,540.67,668.73,538.64z"/>
		<path class="st0" d="M698.54,555.88c0.43,0.07,0.64,0.47,0.64,1.23h-11.54v-1.28c0.23,0,0.46-0.02,0.69-0.05
			c1.47-0.13,2.21-0.96,2.21-2.5v-26.81h-2.9v-1.28h9.13v14.48c0.23-0.46,0.51-0.92,0.83-1.37c1.57-2.03,3.68-3.05,6.33-3.05
			c0.85,0,1.64,0.13,2.36,0.39c2.91,0.98,4.37,3.52,4.37,7.61v12.57h1.62c0.2,0,0.39,0.02,0.59,0.05c0.43,0.07,0.64,0.47,0.64,1.23
			h-11v-1.28c0.56,0,1-0.08,1.33-0.25c0.39-0.23,0.59-1,0.59-2.31v-10.85c0-0.33-0.02-0.62-0.05-0.89
			c-0.23-2.45-1.34-3.68-3.34-3.68c-0.52,0-1.06,0.15-1.62,0.44c-1.77,0.95-2.65,2.86-2.65,5.74v11.79H698
			C698.19,555.83,698.37,555.84,698.54,555.88z"/>
	</g>
</g>
</svg>
